{"title":"Vehicle.19 NL 2013","uid":8354702,"size":301702167,"categoryP":"video","categoryS":"handheld","magnet":"?xt=urn:btih:a2ff859a067c3001522467dcaee3324478ab797a&amp;dn=Vehicle.19+NL+2013&amp;tr=udp%3A%2F%2Ftracker.openbittorrent.com%3A80&amp;tr=udp%3A%2F%2Fopen.demonii.com%3A1337&amp;tr=udp%3A%2F%2Ftracker.coppersurfer.tk%3A6969&amp;tr=udp%3A%2F%2Fexodus.desync.com%3A6969","seeders":0,"leechers":0,"uploader":"facemovies","files":-1,"time":1365455947,"description":"Video\nFormat                         : AVC\nFormat/Info                    : Advanced Video Codec\nFormat profile                 : &lt;a class=&quot;__cf_email__&quot; href=&quot;/cdn-cgi/l/email-protection&quot; data-cfemail=&quot;4c012d25220c007e627d&quot;&gt;[email&amp;#160;protected]&lt;/a&gt;&lt;script cf-hash='f9e31' type=&quot;text/javascript&quot;&gt;\n/* &lt;![CDATA[ */!function(){try{var t=&quot;currentScript&quot;in document?document.currentScript:function(){for(var t=document.getElementsByTagName(&quot;script&quot;),e=t.length;e--;)if(t[e].getAttribute(&quot;cf-hash&quot;))return t[e]}();if(t&amp;&amp;t.previousSibling){var e,r,n,i,c=t.previousSibling,a=c.getAttribute(&quot;data-cfemail&quot;);if(a){for(e=&quot;&quot;,r=parseInt(a.substr(0,2),16),n=2;a.length-n;n+=2)i=parseInt(a.substr(n,2),16)^r,e+=String.fromCharCode(i);e=document.createTextNode(e),c.parentNode.replaceChild(e,c)}}}catch(u){}}();/* ]]&gt; */&lt;/script&gt;\nFormat settings, CABAC         : Yes\nFormat settings, ReFrames      : 3 frames\nFormat settings, GOP           : M=1, N=48\nCodec ID                       : 7\nDuration                       : 1h 25mn\nBit rate                       : 368 Kbps\nWidth                          : 640 pixels\nHeight                         : 270 pixels\nDisplay aspect ratio           : 2.40:1\nFrame rate mode                : Constant\nFrame rate                     : 24.000 fps\nColor space                    : YUV\nChroma subsampling             : 4:2:0\nBit depth                      : 8 bits\nScan type                      : Progressive\nBits/(Pixel*Frame)             : 0.089\nStream size                    : 224 MiB (78%)\n\nAudio\nFormat                         : AAC\nFormat/Info                    : Advanced Audio Codec\nFormat profile                 : LC\nCodec ID                       : 10\nDuration                       : 1h 25mn\nBit rate                       : 96.7 Kbps\nChannel(s)                     : 1 channel\nChannel positions              : Front: C\nSampling rate                  : 44.1 KHz\nCompression mode               : Lossy\nStream size                    : 58.9 MiB (20%)","torrent":{"xt":"urn:btih:a2ff859a067c3001522467dcaee3324478ab797a","amp;dn":"Vehicle.19+NL+2013","amp;tr":["udp%3A%2F%2Ftracker.openbittorrent.com%3A80","udp%3A%2F%2Fopen.demonii.com%3A1337","udp%3A%2F%2Ftracker.coppersurfer.tk%3A6969","udp%3A%2F%2Fexodus.desync.com%3A6969"],"infoHash":"a2ff859a067c3001522467dcaee3324478ab797a","infoHashBuffer":{"type":"Buffer","data":[162,255,133,154,6,124,48,1,82,36,103,220,174,227,50,68,120,171,121,122]},"announce":[],"urlList":[]}}